<svg width="134" height="22" viewBox="0 0 134 22" fill="none" xmlns="http://www.w3.org/2000/svg">
<path d="M34.228 6.27C35.264 6.27 36.1693 6.47067 36.944 6.872C37.728 7.264 38.33 7.83333 38.75 8.58C39.1793 9.31733 39.394 10.1807 39.394 11.17C39.394 12.1593 39.1793 13.018 38.75 13.746C38.33 14.474 37.728 15.034 36.944 15.426C36.1693 15.8087 35.264 16 34.228 16H31.05V6.27H34.228ZM34.228 14.698C35.3667 14.698 36.2393 14.39 36.846 13.774C37.4527 13.158 37.756 12.29 37.756 11.17C37.756 10.0407 37.4527 9.15867 36.846 8.524C36.2393 7.88933 35.3667 7.572 34.228 7.572H32.646V14.698H34.228ZM44.3218 16.126C43.5938 16.126 42.9358 15.9627 42.3478 15.636C41.7598 15.3 41.2978 14.8333 40.9618 14.236C40.6258 13.6293 40.4578 12.9293 40.4578 12.136C40.4578 11.352 40.6304 10.6567 40.9758 10.05C41.3211 9.44333 41.7924 8.97667 42.3898 8.65C42.9871 8.32333 43.6544 8.16 44.3918 8.16C45.1291 8.16 45.7964 8.32333 46.3938 8.65C46.9911 8.97667 47.4624 9.44333 47.8078 10.05C48.1531 10.6567 48.3258 11.352 48.3258 12.136C48.3258 12.92 48.1484 13.6153 47.7938 14.222C47.4391 14.8287 46.9538 15.3 46.3378 15.636C45.7311 15.9627 45.0591 16.126 44.3218 16.126ZM44.3218 14.74C44.7324 14.74 45.1151 14.642 45.4698 14.446C45.8338 14.25 46.1278 13.956 46.3518 13.564C46.5758 13.172 46.6878 12.696 46.6878 12.136C46.6878 11.576 46.5804 11.1047 46.3658 10.722C46.1511 10.33 45.8664 10.036 45.5118 9.84C45.1571 9.644 44.7744 9.546 44.3638 9.546C43.9531 9.546 43.5704 9.644 43.2158 9.84C42.8704 10.036 42.5951 10.33 42.3898 10.722C42.1844 11.1047 42.0818 11.576 42.0818 12.136C42.0818 12.9667 42.2918 13.6107 42.7118 14.068C43.1411 14.516 43.6778 14.74 44.3218 14.74ZM60.2635 8.286L57.8695 16H56.1895L54.6355 10.302L53.0815 16H51.4015L48.9935 8.286H50.6175L52.2275 14.488L53.8655 8.286H55.5315L57.0995 14.46L58.6955 8.286H60.2635ZM65.3483 8.16C65.9549 8.16 66.4963 8.286 66.9723 8.538C67.4576 8.79 67.8356 9.16333 68.1063 9.658C68.3769 10.1527 68.5123 10.75 68.5123 11.45V16H66.9303V11.688C66.9303 10.9973 66.7576 10.47 66.4123 10.106C66.0669 9.73267 65.5956 9.546 64.9983 9.546C64.4009 9.546 63.9249 9.73267 63.5703 10.106C63.2249 10.47 63.0523 10.9973 63.0523 11.688V16H61.4563V8.286H63.0523V9.168C63.3136 8.85067 63.6449 8.60333 64.0463 8.426C64.4569 8.24867 64.8909 8.16 65.3483 8.16ZM72.144 5.64V16H70.548V5.64H72.144ZM77.5855 16.126C76.8575 16.126 76.1995 15.9627 75.6115 15.636C75.0235 15.3 74.5615 14.8333 74.2255 14.236C73.8895 13.6293 73.7215 12.9293 73.7215 12.136C73.7215 11.352 73.8941 10.6567 74.2395 10.05C74.5848 9.44333 75.0561 8.97667 75.6535 8.65C76.2508 8.32333 76.9181 8.16 77.6555 8.16C78.3928 8.16 79.0601 8.32333 79.6575 8.65C80.2548 8.97667 80.7261 9.44333 81.0715 10.05C81.4168 10.6567 81.5895 11.352 81.5895 12.136C81.5895 12.92 81.4121 13.6153 81.0575 14.222C80.7028 14.8287 80.2175 15.3 79.6015 15.636C78.9948 15.9627 78.3228 16.126 77.5855 16.126ZM77.5855 14.74C77.9961 14.74 78.3788 14.642 78.7335 14.446C79.0975 14.25 79.3915 13.956 79.6155 13.564C79.8395 13.172 79.9515 12.696 79.9515 12.136C79.9515 11.576 79.8441 11.1047 79.6295 10.722C79.4148 10.33 79.1301 10.036 78.7755 9.84C78.4208 9.644 78.0381 9.546 77.6275 9.546C77.2168 9.546 76.8341 9.644 76.4795 9.84C76.1341 10.036 75.8588 10.33 75.6535 10.722C75.4481 11.1047 75.3455 11.576 75.3455 12.136C75.3455 12.9667 75.5555 13.6107 75.9755 14.068C76.4048 14.516 76.9415 14.74 77.5855 14.74ZM82.6352 12.108C82.6352 11.3333 82.7939 10.6473 83.1112 10.05C83.4379 9.45267 83.8765 8.99067 84.4272 8.664C84.9872 8.328 85.6032 8.16 86.2752 8.16C86.8819 8.16 87.4092 8.28133 87.8572 8.524C88.3145 8.75733 88.6785 9.05133 88.9492 9.406V8.286H90.5592V16H88.9492V14.852C88.6785 15.216 88.3099 15.5193 87.8432 15.762C87.3765 16.0047 86.8445 16.126 86.2472 16.126C85.5845 16.126 84.9779 15.958 84.4272 15.622C83.8765 15.2767 83.4379 14.8007 83.1112 14.194C82.7939 13.578 82.6352 12.8827 82.6352 12.108ZM88.9492 12.136C88.9492 11.604 88.8372 11.142 88.6132 10.75C88.3985 10.358 88.1139 10.0593 87.7592 9.854C87.4045 9.64867 87.0219 9.546 86.6112 9.546C86.2005 9.546 85.8179 9.64867 85.4632 9.854C85.1085 10.05 84.8192 10.344 84.5952 10.736C84.3805 11.1187 84.2732 11.576 84.2732 12.108C84.2732 12.64 84.3805 13.1067 84.5952 13.508C84.8192 13.9093 85.1085 14.2173 85.4632 14.432C85.8272 14.6373 86.2099 14.74 86.6112 14.74C87.0219 14.74 87.4045 14.6373 87.7592 14.432C88.1139 14.2267 88.3985 13.928 88.6132 13.536C88.8372 13.1347 88.9492 12.668 88.9492 12.136ZM92.1235 12.108C92.1235 11.3333 92.2821 10.6473 92.5995 10.05C92.9261 9.45267 93.3648 8.99067 93.9155 8.664C94.4755 8.328 95.0961 8.16 95.7775 8.16C96.2815 8.16 96.7761 8.272 97.2615 8.496C97.7561 8.71067 98.1481 9 98.4375 9.364V5.64H100.047V16H98.4375V14.838C98.1761 15.2113 97.8121 15.5193 97.3455 15.762C96.8881 16.0047 96.3608 16.126 95.7635 16.126C95.0915 16.126 94.4755 15.958 93.9155 15.622C93.3648 15.2767 92.9261 14.8007 92.5995 14.194C92.2821 13.578 92.1235 12.8827 92.1235 12.108ZM98.4375 12.136C98.4375 11.604 98.3255 11.142 98.1015 10.75C97.8868 10.358 97.6021 10.0593 97.2475 9.854C96.8928 9.64867 96.5101 9.546 96.0995 9.546C95.6888 9.546 95.3061 9.64867 94.9515 9.854C94.5968 10.05 94.3075 10.344 94.0835 10.736C93.8688 11.1187 93.7615 11.576 93.7615 12.108C93.7615 12.64 93.8688 13.1067 94.0835 13.508C94.3075 13.9093 94.5968 14.2173 94.9515 14.432C95.3155 14.6373 95.6981 14.74 96.0995 14.74C96.5101 14.74 96.8928 14.6373 97.2475 14.432C97.6021 14.2267 97.8868 13.928 98.1015 13.536C98.3255 13.1347 98.4375 12.668 98.4375 12.136ZM111.646 14.012H107.572L106.872 16H105.206L108.692 6.256H110.54L114.026 16H112.346L111.646 14.012ZM111.198 12.71L109.616 8.188L108.02 12.71H111.198ZM117.138 9.42C117.409 9.06533 117.778 8.76667 118.244 8.524C118.711 8.28133 119.238 8.16 119.826 8.16C120.498 8.16 121.11 8.328 121.66 8.664C122.22 8.99067 122.659 9.45267 122.976 10.05C123.294 10.6473 123.452 11.3333 123.452 12.108C123.452 12.8827 123.294 13.578 122.976 14.194C122.659 14.8007 122.22 15.2767 121.66 15.622C121.11 15.958 120.498 16.126 119.826 16.126C119.238 16.126 118.716 16.0093 118.258 15.776C117.801 15.5333 117.428 15.2347 117.138 14.88V19.668H115.542V8.286H117.138V9.42ZM121.828 12.108C121.828 11.576 121.716 11.1187 121.492 10.736C121.278 10.344 120.988 10.05 120.624 9.854C120.27 9.64867 119.887 9.546 119.476 9.546C119.075 9.546 118.692 9.64867 118.328 9.854C117.974 10.0593 117.684 10.358 117.46 10.75C117.246 11.142 117.138 11.604 117.138 12.136C117.138 12.668 117.246 13.1347 117.46 13.536C117.684 13.928 117.974 14.2267 118.328 14.432C118.692 14.6373 119.075 14.74 119.476 14.74C119.887 14.74 120.27 14.6373 120.624 14.432C120.988 14.2173 121.278 13.9093 121.492 13.508C121.716 13.1067 121.828 12.64 121.828 12.108ZM126.626 9.42C126.897 9.06533 127.266 8.76667 127.732 8.524C128.199 8.28133 128.726 8.16 129.314 8.16C129.986 8.16 130.598 8.328 131.148 8.664C131.708 8.99067 132.147 9.45267 132.464 10.05C132.782 10.6473 132.94 11.3333 132.94 12.108C132.94 12.8827 132.782 13.578 132.464 14.194C132.147 14.8007 131.708 15.2767 131.148 15.622C130.598 15.958 129.986 16.126 129.314 16.126C128.726 16.126 128.204 16.0093 127.746 15.776C127.289 15.5333 126.916 15.2347 126.626 14.88V19.668H125.03V8.286H126.626V9.42ZM131.316 12.108C131.316 11.576 131.204 11.1187 130.98 10.736C130.766 10.344 130.476 10.05 130.112 9.854C129.758 9.64867 129.375 9.546 128.964 9.546C128.563 9.546 128.18 9.64867 127.816 9.854C127.462 10.0593 127.172 10.358 126.948 10.75C126.734 11.142 126.626 11.604 126.626 12.136C126.626 12.668 126.734 13.1347 126.948 13.536C127.172 13.928 127.462 14.2267 127.816 14.432C128.18 14.6373 128.563 14.74 128.964 14.74C129.375 14.74 129.758 14.6373 130.112 14.432C130.476 14.2173 130.766 13.9093 130.98 13.508C131.204 13.1067 131.316 12.64 131.316 12.108Z" fill="#3C4EF3"/>
<path d="M17.6602 7.93308L15.2726 6.64017L12.3955 9.95104L15.3274 13.3304L17.6591 12.0685C18.6326 11.5423 19.1667 10.8055 19.1667 9.99917C19.1667 9.19284 18.6337 8.46029 17.6602 7.93308Z" fill="#3C4EF3"/>
<path d="M2.19126 20L10.9232 9.95188L2.30196 0.0128329C2.27457 0.0117635 2.24604 0 2.21865 0C0.89134 0 0 1.01059 0 2.51631V17.488C0.00228256 18.9798 0.88221 19.985 2.19126 20Z" fill="#3C4EF3"/>
<path d="M14.2694 6.10123L4.44522 0.784149L11.6604 9.10304L14.2694 6.10123Z" fill="#3C4EF3"/>
<path d="M11.6594 10.7979L4.25363 19.3221L14.3254 13.8713L11.6594 10.7979Z" fill="#3C4EF3"/>
</svg>
