<svg width="131" height="22" viewBox="0 0 131 22" fill="none" xmlns="http://www.w3.org/2000/svg">
<path d="M31.228 6.27C32.264 6.27 33.1693 6.47067 33.944 6.872C34.728 7.264 35.33 7.83333 35.75 8.58C36.1793 9.31733 36.394 10.1807 36.394 11.17C36.394 12.1593 36.1793 13.018 35.75 13.746C35.33 14.474 34.728 15.034 33.944 15.426C33.1693 15.8087 32.264 16 31.228 16H28.05V6.27H31.228ZM31.228 14.698C32.3667 14.698 33.2393 14.39 33.846 13.774C34.4527 13.158 34.756 12.29 34.756 11.17C34.756 10.0407 34.4527 9.15867 33.846 8.524C33.2393 7.88933 32.3667 7.572 31.228 7.572H29.646V14.698H31.228ZM41.3218 16.126C40.5938 16.126 39.9358 15.9627 39.3478 15.636C38.7598 15.3 38.2978 14.8333 37.9618 14.236C37.6258 13.6293 37.4578 12.9293 37.4578 12.136C37.4578 11.352 37.6304 10.6567 37.9758 10.05C38.3211 9.44333 38.7924 8.97667 39.3898 8.65C39.9871 8.32333 40.6544 8.16 41.3918 8.16C42.1291 8.16 42.7964 8.32333 43.3938 8.65C43.9911 8.97667 44.4624 9.44333 44.8078 10.05C45.1531 10.6567 45.3258 11.352 45.3258 12.136C45.3258 12.92 45.1484 13.6153 44.7938 14.222C44.4391 14.8287 43.9538 15.3 43.3378 15.636C42.7311 15.9627 42.0591 16.126 41.3218 16.126ZM41.3218 14.74C41.7324 14.74 42.1151 14.642 42.4698 14.446C42.8338 14.25 43.1278 13.956 43.3518 13.564C43.5758 13.172 43.6878 12.696 43.6878 12.136C43.6878 11.576 43.5804 11.1047 43.3658 10.722C43.1511 10.33 42.8664 10.036 42.5118 9.84C42.1571 9.644 41.7744 9.546 41.3638 9.546C40.9531 9.546 40.5704 9.644 40.2158 9.84C39.8704 10.036 39.5951 10.33 39.3898 10.722C39.1844 11.1047 39.0818 11.576 39.0818 12.136C39.0818 12.9667 39.2918 13.6107 39.7118 14.068C40.1411 14.516 40.6778 14.74 41.3218 14.74ZM57.2635 8.286L54.8695 16H53.1895L51.6355 10.302L50.0815 16H48.4015L45.9935 8.286H47.6175L49.2275 14.488L50.8655 8.286H52.5315L54.0995 14.46L55.6955 8.286H57.2635ZM62.3483 8.16C62.9549 8.16 63.4963 8.286 63.9723 8.538C64.4576 8.79 64.8356 9.16333 65.1063 9.658C65.3769 10.1527 65.5123 10.75 65.5123 11.45V16H63.9303V11.688C63.9303 10.9973 63.7576 10.47 63.4123 10.106C63.0669 9.73267 62.5956 9.546 61.9983 9.546C61.4009 9.546 60.9249 9.73267 60.5703 10.106C60.2249 10.47 60.0523 10.9973 60.0523 11.688V16H58.4563V8.286H60.0523V9.168C60.3136 8.85067 60.6449 8.60333 61.0463 8.426C61.4569 8.24867 61.8909 8.16 62.3483 8.16ZM69.144 5.64V16H67.548V5.64H69.144ZM74.5855 16.126C73.8575 16.126 73.1995 15.9627 72.6115 15.636C72.0235 15.3 71.5615 14.8333 71.2255 14.236C70.8895 13.6293 70.7215 12.9293 70.7215 12.136C70.7215 11.352 70.8941 10.6567 71.2395 10.05C71.5848 9.44333 72.0561 8.97667 72.6535 8.65C73.2508 8.32333 73.9181 8.16 74.6555 8.16C75.3928 8.16 76.0601 8.32333 76.6575 8.65C77.2548 8.97667 77.7261 9.44333 78.0715 10.05C78.4168 10.6567 78.5895 11.352 78.5895 12.136C78.5895 12.92 78.4121 13.6153 78.0575 14.222C77.7028 14.8287 77.2175 15.3 76.6015 15.636C75.9948 15.9627 75.3228 16.126 74.5855 16.126ZM74.5855 14.74C74.9961 14.74 75.3788 14.642 75.7335 14.446C76.0975 14.25 76.3915 13.956 76.6155 13.564C76.8395 13.172 76.9515 12.696 76.9515 12.136C76.9515 11.576 76.8441 11.1047 76.6295 10.722C76.4148 10.33 76.1301 10.036 75.7755 9.84C75.4208 9.644 75.0381 9.546 74.6275 9.546C74.2168 9.546 73.8341 9.644 73.4795 9.84C73.1341 10.036 72.8588 10.33 72.6535 10.722C72.4481 11.1047 72.3455 11.576 72.3455 12.136C72.3455 12.9667 72.5555 13.6107 72.9755 14.068C73.4048 14.516 73.9415 14.74 74.5855 14.74ZM79.6352 12.108C79.6352 11.3333 79.7939 10.6473 80.1112 10.05C80.4379 9.45267 80.8765 8.99067 81.4272 8.664C81.9872 8.328 82.6032 8.16 83.2752 8.16C83.8819 8.16 84.4092 8.28133 84.8572 8.524C85.3145 8.75733 85.6785 9.05133 85.9492 9.406V8.286H87.5592V16H85.9492V14.852C85.6785 15.216 85.3099 15.5193 84.8432 15.762C84.3765 16.0047 83.8445 16.126 83.2472 16.126C82.5845 16.126 81.9779 15.958 81.4272 15.622C80.8765 15.2767 80.4379 14.8007 80.1112 14.194C79.7939 13.578 79.6352 12.8827 79.6352 12.108ZM85.9492 12.136C85.9492 11.604 85.8372 11.142 85.6132 10.75C85.3985 10.358 85.1139 10.0593 84.7592 9.854C84.4045 9.64867 84.0219 9.546 83.6112 9.546C83.2005 9.546 82.8179 9.64867 82.4632 9.854C82.1085 10.05 81.8192 10.344 81.5952 10.736C81.3805 11.1187 81.2732 11.576 81.2732 12.108C81.2732 12.64 81.3805 13.1067 81.5952 13.508C81.8192 13.9093 82.1085 14.2173 82.4632 14.432C82.8272 14.6373 83.2099 14.74 83.6112 14.74C84.0219 14.74 84.4045 14.6373 84.7592 14.432C85.1139 14.2267 85.3985 13.928 85.6132 13.536C85.8372 13.1347 85.9492 12.668 85.9492 12.136ZM89.1235 12.108C89.1235 11.3333 89.2821 10.6473 89.5995 10.05C89.9261 9.45267 90.3648 8.99067 90.9155 8.664C91.4755 8.328 92.0961 8.16 92.7775 8.16C93.2815 8.16 93.7761 8.272 94.2615 8.496C94.7561 8.71067 95.1481 9 95.4375 9.364V5.64H97.0475V16H95.4375V14.838C95.1761 15.2113 94.8121 15.5193 94.3455 15.762C93.8881 16.0047 93.3608 16.126 92.7635 16.126C92.0915 16.126 91.4755 15.958 90.9155 15.622C90.3648 15.2767 89.9261 14.8007 89.5995 14.194C89.2821 13.578 89.1235 12.8827 89.1235 12.108ZM95.4375 12.136C95.4375 11.604 95.3255 11.142 95.1015 10.75C94.8868 10.358 94.6021 10.0593 94.2475 9.854C93.8928 9.64867 93.5101 9.546 93.0995 9.546C92.6888 9.546 92.3061 9.64867 91.9515 9.854C91.5968 10.05 91.3075 10.344 91.0835 10.736C90.8688 11.1187 90.7615 11.576 90.7615 12.108C90.7615 12.64 90.8688 13.1067 91.0835 13.508C91.3075 13.9093 91.5968 14.2173 91.9515 14.432C92.3155 14.6373 92.6981 14.74 93.0995 14.74C93.5101 14.74 93.8928 14.6373 94.2475 14.432C94.6021 14.2267 94.8868 13.928 95.1015 13.536C95.3255 13.1347 95.4375 12.668 95.4375 12.136ZM108.646 14.012H104.572L103.872 16H102.206L105.692 6.256H107.54L111.026 16H109.346L108.646 14.012ZM108.198 12.71L106.616 8.188L105.02 12.71H108.198ZM114.138 9.42C114.409 9.06533 114.778 8.76667 115.244 8.524C115.711 8.28133 116.238 8.16 116.826 8.16C117.498 8.16 118.11 8.328 118.66 8.664C119.22 8.99067 119.659 9.45267 119.976 10.05C120.294 10.6473 120.452 11.3333 120.452 12.108C120.452 12.8827 120.294 13.578 119.976 14.194C119.659 14.8007 119.22 15.2767 118.66 15.622C118.11 15.958 117.498 16.126 116.826 16.126C116.238 16.126 115.716 16.0093 115.258 15.776C114.801 15.5333 114.428 15.2347 114.138 14.88V19.668H112.542V8.286H114.138V9.42ZM118.828 12.108C118.828 11.576 118.716 11.1187 118.492 10.736C118.278 10.344 117.988 10.05 117.624 9.854C117.27 9.64867 116.887 9.546 116.476 9.546C116.075 9.546 115.692 9.64867 115.328 9.854C114.974 10.0593 114.684 10.358 114.46 10.75C114.246 11.142 114.138 11.604 114.138 12.136C114.138 12.668 114.246 13.1347 114.46 13.536C114.684 13.928 114.974 14.2267 115.328 14.432C115.692 14.6373 116.075 14.74 116.476 14.74C116.887 14.74 117.27 14.6373 117.624 14.432C117.988 14.2173 118.278 13.9093 118.492 13.508C118.716 13.1067 118.828 12.64 118.828 12.108ZM123.626 9.42C123.897 9.06533 124.266 8.76667 124.732 8.524C125.199 8.28133 125.726 8.16 126.314 8.16C126.986 8.16 127.598 8.328 128.148 8.664C128.708 8.99067 129.147 9.45267 129.464 10.05C129.782 10.6473 129.94 11.3333 129.94 12.108C129.94 12.8827 129.782 13.578 129.464 14.194C129.147 14.8007 128.708 15.2767 128.148 15.622C127.598 15.958 126.986 16.126 126.314 16.126C125.726 16.126 125.204 16.0093 124.746 15.776C124.289 15.5333 123.916 15.2347 123.626 14.88V19.668H122.03V8.286H123.626V9.42ZM128.316 12.108C128.316 11.576 128.204 11.1187 127.98 10.736C127.766 10.344 127.476 10.05 127.112 9.854C126.758 9.64867 126.375 9.546 125.964 9.546C125.563 9.546 125.18 9.64867 124.816 9.854C124.462 10.0593 124.172 10.358 123.948 10.75C123.734 11.142 123.626 11.604 123.626 12.136C123.626 12.668 123.734 13.1347 123.948 13.536C124.172 13.928 124.462 14.2267 124.816 14.432C125.18 14.6373 125.563 14.74 125.964 14.74C126.375 14.74 126.758 14.6373 127.112 14.432C127.476 14.2173 127.766 13.9093 127.98 13.508C128.204 13.1067 128.316 12.64 128.316 12.108Z" fill="#3C4EF3"/>
<path d="M11.991 0C10.9507 0.0737491 9.7349 0.756241 9.02637 1.64498C8.38003 2.45122 7.84832 3.64871 8.05564 4.81244C9.19222 4.84869 10.3666 4.14995 11.0471 3.24621C11.6837 2.40497 12.1654 1.21499 11.991 0Z" fill="#3C4EF3"/>
<path d="M16.1019 6.71C15.1032 5.42627 13.6995 4.68127 12.3739 4.68127C10.6239 4.68127 9.88366 5.54001 8.66781 5.54001C7.41416 5.54001 6.46172 4.68377 4.94831 4.68377C3.46173 4.68377 1.87881 5.61501 0.87515 7.2075C-0.535822 9.44997 -0.294359 13.6662 1.99222 17.2574C2.81051 18.5424 3.90319 19.9873 5.33245 19.9998C6.6044 20.0123 6.96294 19.1636 8.6861 19.1549C10.4093 19.1449 10.7361 20.0111 12.0056 19.9973C13.4361 19.9861 14.5885 18.3849 15.4068 17.0999C15.9934 16.1786 16.2117 15.7149 16.6666 14.6749C13.358 13.3837 12.8276 8.56123 16.1019 6.71Z" fill="#3C4EF3"/>
</svg>
